<svg width="47" height="47" viewBox="0 0 47 47" fill="none" xmlns="http://www.w3.org/2000/svg">
<mask id="mask0_32_198" style="mask-type:alpha" maskUnits="userSpaceOnUse" x="0" y="0" width="47" height="47">
<rect width="47" height="47" fill="#D9D9D9"/>
</mask>
<g mask="url(#mask0_32_198)">
<path d="M43.5284 15.296C42.8703 14.7532 42.1683 14.2568 41.4222 13.8067C40.6757 13.3566 39.8927 12.9729 39.0731 12.6556V7.97376H7.43528V3.51855H39.0731C40.3062 3.51855 41.357 3.95281 42.2256 4.82134C43.0941 5.68986 43.5284 6.74067 43.5284 7.97376V15.296ZM5.55871 35.929C4.98067 35.929 4.49615 35.7323 4.10514 35.339C3.71412 34.9457 3.51862 34.4584 3.51862 33.8771V15.9006C3.51862 15.3193 3.71412 14.832 4.10514 14.4387C4.49615 14.0454 4.98067 13.8488 5.55871 13.8488H15.5379C16.1159 13.8488 16.6004 14.0454 16.9915 14.4387C17.3825 14.832 17.578 15.3193 17.578 15.9006V33.8771C17.578 34.4584 17.3825 34.9457 16.9915 35.339C16.6004 35.7323 16.1159 35.929 15.5379 35.929H5.55871ZM31.7059 39.5646V29.5683C31.4121 29.302 31.1755 28.9939 30.996 28.644C30.8165 28.2941 30.7267 27.9302 30.7267 27.5522C30.7267 26.8309 30.9813 26.224 31.4905 25.7314C31.9993 25.2386 32.5997 24.9922 33.2916 24.9922C34.0097 24.9922 34.6168 25.2386 35.1129 25.7314C35.6087 26.224 35.8566 26.8309 35.8566 27.5522C35.8566 27.9302 35.7812 28.3006 35.6304 28.6636C35.4796 29.0265 35.2286 29.33 34.8774 29.5742V39.5646H31.7059ZM27.7006 33.1829C26.975 32.409 26.4004 31.5423 25.9768 30.5827C25.5531 29.6231 25.3413 28.6139 25.3413 27.5551C25.3413 25.3383 26.1196 23.4594 27.6761 21.9186C29.2327 20.3774 31.104 19.6068 33.2902 19.6068C35.5093 19.6068 37.3893 20.3769 38.9302 21.9171C40.4714 23.4577 41.242 25.3377 41.242 27.5571C41.242 28.5924 41.0465 29.5892 40.6555 30.5475C40.2645 31.5054 39.6898 32.3676 38.9316 33.1339L36.6624 30.9137C37.1115 30.4567 37.4585 29.9419 37.7033 29.369C37.9481 28.7959 38.0705 28.1909 38.0705 27.5542C38.0705 26.2169 37.609 25.0867 36.6859 24.1633C35.7626 23.24 34.6331 22.7783 33.2975 22.7783C31.9619 22.7783 30.8305 23.2406 29.9032 24.1653C28.9763 25.0903 28.5128 26.2223 28.5128 27.5615C28.5128 28.1993 28.6434 28.8052 28.9045 29.3793C29.1656 29.9531 29.5168 30.4685 29.9581 30.9254L27.7006 33.1829ZM24.2133 36.6472C23.0631 35.3916 22.1476 33.9847 21.4667 32.4265C20.7859 30.8683 20.4455 29.2452 20.4455 27.5571C20.4455 23.9668 21.697 20.9281 24.2001 18.4411C26.7032 15.9543 29.7332 14.7109 33.2902 14.7109C36.8801 14.7109 39.9188 15.9543 42.4062 18.4411C44.894 20.9281 46.1378 23.9668 46.1378 27.5571C46.1378 29.2452 45.818 30.8683 45.1782 32.4265C44.5388 33.9847 43.6153 35.3753 42.4077 36.5982L40.162 34.3525C41.0772 33.406 41.7734 32.3531 42.2505 31.1937C42.7277 30.0344 42.9663 28.8222 42.9663 27.5571C42.9663 24.8546 42.0296 22.5664 40.1561 20.6926C38.2823 18.8192 35.9943 17.8824 33.2921 17.8824C30.622 17.8824 28.3418 18.8192 26.4517 20.6926C24.5619 22.5664 23.617 24.8546 23.617 27.5571C23.617 28.8222 23.868 30.0406 24.37 31.2123C24.872 32.3841 25.5721 33.4432 26.4703 34.3897L24.2133 36.6472Z" fill="#FF6A33"/>
</g>
</svg>
