<svg width="68" height="68" viewBox="0 0 68 68" fill="none" xmlns="http://www.w3.org/2000/svg">
<mask id="mask0_32_98" style="mask-type:alpha" maskUnits="userSpaceOnUse" x="0" y="0" width="68" height="68">
<rect width="67.4337" height="67.4337" fill="#D9D9D9"/>
</mask>
<g mask="url(#mask0_32_98)">
<path d="M33.7168 62.856C29.6844 62.856 25.8973 62.0931 22.3557 60.5674C18.814 59.0417 15.7312 56.967 13.1074 54.3432C10.4831 51.7193 8.40835 48.6366 6.88313 45.0949C5.35745 41.5532 4.5946 37.7662 4.5946 33.7337C4.5946 28.1714 6.05496 23.0382 8.97569 18.3343C11.8964 13.6303 15.8516 10.0507 20.8412 7.59546C20.8206 8.56341 20.8665 9.56555 20.9789 10.6019C21.0917 11.6387 21.3175 12.8274 21.656 14.1681C18.2511 16.2843 15.5769 19.0681 13.6335 22.5194C11.6901 25.9702 10.7184 29.7083 10.7184 33.7337C10.7184 40.1432 12.9491 45.5758 17.4105 50.0316C21.8719 54.4874 27.3073 56.7153 33.7168 56.7153C40.1263 56.7153 45.5617 54.4874 50.0231 50.0316C54.4845 45.5758 56.7152 40.1432 56.7152 33.7337C56.7152 29.7083 55.7407 25.9585 53.7917 22.4843C51.8427 19.0095 49.1479 16.2141 45.7074 14.0979C46.046 12.7459 46.2745 11.5572 46.393 10.5316C46.511 9.50655 46.5775 8.52782 46.5924 7.59546C51.5821 10.0507 55.5372 13.6214 58.458 18.3076C61.3787 22.9938 62.8391 28.1358 62.8391 33.7337C62.8391 37.7662 62.0762 41.5532 60.5505 45.0949C59.0253 48.6366 56.9505 51.7193 54.3262 54.3432C51.7024 56.967 48.6197 59.0417 45.078 60.5674C41.5363 62.0931 37.7493 62.856 33.7168 62.856ZM33.7168 51.1969C28.8658 51.1969 24.7425 49.4992 21.347 46.1036C17.9514 42.708 16.2536 38.5847 16.2536 33.7337C16.2536 30.9502 16.8591 28.3365 18.0701 25.8925C19.2811 23.448 21.0039 21.3962 23.2386 19.737C23.484 20.5177 23.7666 21.4121 24.0865 22.4203C24.4068 23.429 24.8235 24.6796 25.3368 26.172C24.3735 27.2266 23.6423 28.3927 23.1431 29.6702C22.6434 30.9476 22.3936 32.3022 22.3936 33.7337C22.3936 36.8582 23.4997 39.5265 25.7119 41.7387C27.9241 43.9504 30.5924 45.0563 33.7168 45.0563C36.8413 45.0563 39.5096 43.9504 41.7218 41.7387C43.934 39.5265 45.0401 36.8582 45.0401 33.7337C45.0401 32.3022 44.7902 30.9476 44.2906 29.6702C43.7914 28.3927 43.0601 27.2266 42.0969 26.172C42.5277 24.8913 42.9122 23.7233 43.2503 22.6683C43.5879 21.6128 43.885 20.6357 44.1417 19.737C46.3763 21.3962 48.1081 23.448 49.3369 25.8925C50.5656 28.3365 51.18 30.9502 51.18 33.7337C51.18 38.5847 49.4823 42.708 46.0867 46.1036C42.6911 49.4992 38.5678 51.1969 33.7168 51.1969ZM30.6718 23.7985C28.8946 18.6211 27.7368 14.9839 27.1982 12.8869C26.6597 10.7894 26.3904 8.87997 26.3904 7.15854C26.3904 5.11352 27.1001 3.38108 28.5195 1.96123C29.9394 0.541846 31.6718 -0.167847 33.7168 -0.167847C35.7618 -0.167847 37.4943 0.541846 38.9141 1.96123C40.3335 3.38108 41.0432 5.11352 41.0432 7.15854C41.0432 8.86873 40.7739 10.7641 40.2354 12.8447C39.6969 14.9249 38.5334 18.5761 36.745 23.7985H30.6718ZM33.7168 39.5211C32.1153 39.5211 30.7476 38.954 29.6139 37.8198C28.4797 36.6861 27.9126 35.3184 27.9126 33.7169C27.9126 32.1153 28.4797 30.7477 29.6139 29.614C30.7476 28.4798 32.1153 27.9127 33.7168 27.9127C35.3184 27.9127 36.686 28.4798 37.8197 29.614C38.9539 30.7477 39.521 32.1153 39.521 33.7169C39.521 35.3184 38.9539 36.6861 37.8197 37.8198C36.686 38.954 35.3184 39.5211 33.7168 39.5211Z" fill="#FF6A33"/>
</g>
</svg>
