<svg width="83" height="83" viewBox="0 0 83 83" fill="none" xmlns="http://www.w3.org/2000/svg">
<mask id="mask0_32_143" style="mask-type:alpha" maskUnits="userSpaceOnUse" x="0" y="0" width="83" height="83">
<rect width="83" height="83" fill="#D9D9D9"/>
</mask>
<g mask="url(#mask0_32_143)">
<path d="M13.9198 51.3561C12.9976 50.6645 12.5509 49.7567 12.5797 48.6327C12.6085 47.5087 13.084 46.6009 14.0062 45.9093C14.6403 45.4482 15.3319 45.2176 16.0812 45.2176C16.8305 45.2176 17.5222 45.4482 18.1562 45.9093L41.5 63.9791L64.8437 45.9093C65.4778 45.4482 66.1694 45.2176 66.9187 45.2176C67.668 45.2176 68.3597 45.4482 68.9937 45.9093C69.916 46.6009 70.3915 47.5087 70.4203 48.6327C70.4491 49.7567 70.0024 50.6645 69.0802 51.3561L45.7365 69.5124C44.4684 70.4922 43.0562 70.9822 41.5 70.9822C39.9437 70.9822 38.5316 70.4922 37.2635 69.5124L13.9198 51.3561ZM37.2635 52.0478L17.3781 36.5718C15.5913 35.1884 14.6979 33.3728 14.6979 31.1249C14.6979 28.877 15.5913 27.0613 17.3781 25.678L37.2635 10.202C38.5316 9.22211 39.9437 8.73218 41.5 8.73218C43.0562 8.73218 44.4684 9.22211 45.7365 10.202L65.6219 25.678C67.4087 27.0613 68.3021 28.877 68.3021 31.1249C68.3021 33.3728 67.4087 35.1884 65.6219 36.5718L45.7365 52.0478C44.4684 53.0277 43.0562 53.5176 41.5 53.5176C39.9437 53.5176 38.5316 53.0277 37.2635 52.0478Z" fill="#FF6A33"/>
</g>
</svg>
