<svg width="83" height="83" viewBox="0 0 83 83" fill="none" xmlns="http://www.w3.org/2000/svg">
<mask id="mask0_32_162" style="mask-type:alpha" maskUnits="userSpaceOnUse" x="0" y="0" width="83" height="83">
<rect width="83" height="83" fill="#D9D9D9"/>
</mask>
<g mask="url(#mask0_32_162)">
<path d="M38.0417 64.2386L21.5281 57.322C20.2025 56.8032 19.165 55.953 18.4156 54.7714C17.6663 53.5898 17.2917 52.3074 17.2917 50.924V44.9584C17.2917 43.0563 17.9689 41.428 19.3235 40.0735C20.678 38.719 22.3063 38.0417 24.2084 38.0417H38.0417V27.6667H34.5834C32.6813 27.6667 31.053 26.9895 29.6985 25.635C28.3439 24.2805 27.6667 22.6522 27.6667 20.7501V13.8334C27.6667 11.9313 28.3439 10.303 29.6985 8.94852C31.053 7.59401 32.6813 6.91675 34.5834 6.91675H48.4167C50.3188 6.91675 51.9471 7.59401 53.3016 8.94852C54.6561 10.303 55.3334 11.9313 55.3334 13.8334V20.7501C55.3334 22.6522 54.6561 24.2805 53.3016 25.635C51.9471 26.9895 50.3188 27.6667 48.4167 27.6667H44.9584V38.0417H58.7917C60.6938 38.0417 62.3221 38.719 63.6766 40.0735C65.0311 41.428 65.7084 43.0563 65.7084 44.9584V50.924C65.7084 52.3074 65.3337 53.5898 64.5844 54.7714C63.8351 55.953 62.7976 56.8032 61.4719 57.322L44.9584 64.2386V72.6251C44.9584 73.6049 44.6269 74.4263 43.9641 75.0891C43.3012 75.752 42.4799 76.0834 41.5 76.0834C40.5202 76.0834 39.6988 75.752 39.036 75.0891C38.3731 74.4263 38.0417 73.6049 38.0417 72.6251V64.2386ZM38.0417 56.7167V44.9584H24.2084V50.924L38.0417 56.7167ZM44.9584 56.7167L58.7917 50.924V44.9584H44.9584V56.7167Z" fill="#FF6A33"/>
</g>
</svg>
