<svg width="83" height="83" viewBox="0 0 83 83" fill="none" xmlns="http://www.w3.org/2000/svg">
<mask id="mask0_32_174" style="mask-type:alpha" maskUnits="userSpaceOnUse" x="0" y="0" width="83" height="83">
<rect width="83" height="83" fill="#D9D9D9"/>
</mask>
<g mask="url(#mask0_32_174)">
<path d="M41.5 36.3124C37.6958 36.3124 34.151 35.6063 30.8656 34.1942C27.5802 32.782 24.6694 30.8367 22.1333 28.3583L28.3583 24.6405C29.7417 25.7933 31.2403 26.7444 32.8542 27.4937C34.4681 28.243 36.1972 28.7617 38.0417 29.0499V10.7208L41.5 8.64575L44.9583 10.7208V29.0499C46.8028 28.7617 48.5319 28.243 50.1458 27.4937C51.7597 26.7444 53.2583 25.7933 54.6417 24.6405L60.8667 28.3583C58.3306 30.8367 55.4198 32.782 52.1344 34.1942C48.849 35.6063 45.3042 36.3124 41.5 36.3124ZM37.2635 68.7343L30.8656 65.3624C30.9809 64.8437 31.053 64.3249 31.0818 63.8062C31.1106 63.2874 31.125 62.7687 31.125 62.2499C31.125 60.9242 31.0097 59.6129 30.7792 58.3161C30.5486 57.0192 30.2028 55.7944 29.7417 54.6416L13.9198 64.152L10.375 62.2499V58.1864L26.1104 48.7624C24.9576 47.4367 23.6319 46.2551 22.1333 45.2176C20.6347 44.1801 19.0208 43.3444 17.2917 42.7103V35.4478C23.2861 37.0041 28.2431 40.2463 32.1625 45.1744C36.0819 50.1025 38.0417 55.7944 38.0417 62.2499C38.0417 63.4027 37.984 64.5122 37.8687 65.5786C37.7535 66.6449 37.5517 67.6968 37.2635 68.7343ZM45.7365 68.7343C45.4483 67.6968 45.2465 66.6449 45.1312 65.5786C45.016 64.5122 44.9583 63.4027 44.9583 62.2499C44.9583 55.7944 46.9181 50.1025 50.8375 45.1744C54.7569 40.2463 59.7139 37.0041 65.7083 35.4478V42.7103C63.9792 43.3444 62.3653 44.1801 60.8667 45.2176C59.3681 46.2551 58.0424 47.4367 56.8896 48.7624L72.625 58.1864V62.2499L69.0802 64.152L53.2583 54.6416C52.7972 55.7944 52.4514 57.0192 52.2208 58.3161C51.9903 59.6129 51.875 60.9242 51.875 62.2499C51.875 62.7687 51.8894 63.2874 51.9182 63.8062C51.947 64.3249 52.0191 64.8437 52.1344 65.3624L45.7365 68.7343Z" fill="#FF6A33"/>
</g>
</svg>
