<svg width="83" height="83" viewBox="0 0 83 83" fill="none" xmlns="http://www.w3.org/2000/svg">
<mask id="mask0_32_152" style="mask-type:alpha" maskUnits="userSpaceOnUse" x="0" y="0" width="83" height="83">
<rect width="83" height="83" fill="#D9D9D9"/>
</mask>
<g mask="url(#mask0_32_152)">
<path d="M27.6667 69.1666C20.9229 69.1666 15.2023 66.8178 10.5047 62.1202C5.80713 57.4227 3.45834 51.702 3.45834 44.9583C3.45834 38.7909 5.49011 33.4161 9.55366 28.8338C13.6172 24.2515 18.7038 21.6145 24.8136 20.9229L21.7011 17.6374C21.067 16.9458 20.75 16.1388 20.75 15.2166C20.75 14.2944 21.067 13.5163 21.7011 12.8822C22.3927 12.1906 23.2285 11.8447 24.2083 11.8447C25.1882 11.8447 25.9951 12.1617 26.6292 12.7958L35.6208 21.7874C36.3125 22.4791 36.6583 23.286 36.6583 24.2083C36.6583 25.1305 36.3125 25.9374 35.6208 26.6291L26.7156 35.5343C26.024 36.226 25.2026 36.5718 24.2516 36.5718C23.3005 36.5718 22.4792 36.226 21.7875 35.5343C21.1535 34.8426 20.8365 34.0213 20.8365 33.0702C20.8365 32.1192 21.1535 31.3267 21.7875 30.6926L24.4677 28.0124C20.3754 28.8194 17.0035 30.8079 14.3521 33.9781C11.7007 37.1482 10.375 40.8083 10.375 44.9583C10.375 49.7423 12.0609 53.8202 15.4328 57.1921C18.8047 60.564 22.8826 62.2499 27.6667 62.2499H34.5833C35.5632 62.2499 36.3846 62.5814 37.0474 63.2442C37.7103 63.9071 38.0417 64.7284 38.0417 65.7083C38.0417 66.6881 37.7103 67.5095 37.0474 68.1723C36.3846 68.8352 35.5632 69.1666 34.5833 69.1666H27.6667ZM48.4167 38.0416C47.4368 38.0416 46.6155 37.7102 45.9526 37.0473C45.2898 36.3845 44.9583 35.5631 44.9583 34.5833V17.2916C44.9583 16.3117 45.2898 15.4904 45.9526 14.8275C46.6155 14.1647 47.4368 13.8333 48.4167 13.8333H72.625C73.6049 13.8333 74.4262 14.1647 75.0891 14.8275C75.7519 15.4904 76.0833 16.3117 76.0833 17.2916V34.5833C76.0833 35.5631 75.7519 36.3845 75.0891 37.0473C74.4262 37.7102 73.6049 38.0416 72.625 38.0416H48.4167ZM48.4167 69.1666C47.4368 69.1666 46.6155 68.8352 45.9526 68.1723C45.2898 67.5095 44.9583 66.6881 44.9583 65.7083V48.4166C44.9583 47.4367 45.2898 46.6154 45.9526 45.9525C46.6155 45.2897 47.4368 44.9583 48.4167 44.9583H72.625C73.6049 44.9583 74.4262 45.2897 75.0891 45.9525C75.7519 46.6154 76.0833 47.4367 76.0833 48.4166V65.7083C76.0833 66.6881 75.7519 67.5095 75.0891 68.1723C74.4262 68.8352 73.6049 69.1666 72.625 69.1666H48.4167ZM51.875 62.2499H69.1667V51.8749H51.875V62.2499Z" fill="#FF6A33"/>
</g>
</svg>
