<svg width="34" height="34" viewBox="0 0 34 34" fill="none" xmlns="http://www.w3.org/2000/svg">
<mask id="mask0_32_117" style="mask-type:alpha" maskUnits="userSpaceOnUse" x="0" y="0" width="34" height="34">
<rect width="34" height="34" fill="#D9D9D9"/>
</mask>
<g mask="url(#mask0_32_117)">
<path d="M21.1519 19.8768L22.3724 15.4416L18.5693 12.8154L17.3489 17.2506L21.1519 19.8768ZM6.53863 27.3224L5.94186 27.0554C5.19174 26.7303 4.68682 26.1913 4.42709 25.4386C4.16737 24.6857 4.20279 23.9523 4.53334 23.2385L6.53863 18.9397V27.3224ZM12.75 29.423C11.9708 29.423 11.3038 29.1441 10.749 28.5865C10.1941 28.029 9.91668 27.3607 9.91668 26.5815V19.8878L13.0525 28.5022C13.1233 28.6856 13.1914 28.8495 13.2568 28.9937C13.3222 29.1382 13.414 29.2813 13.532 29.423H12.75ZM18.9288 28.0471C18.3241 28.2704 17.7375 28.2532 17.1689 27.9954C16.6004 27.7375 16.2044 27.3061 15.9811 26.7012L10.2301 10.9082C10.0065 10.3033 10.0282 9.71799 10.2953 9.15227C10.5623 8.58654 10.9983 8.192 11.6032 7.96864L20.6833 4.64479C21.2883 4.42143 21.8736 4.44327 22.4393 4.71031C23.005 4.97735 23.3996 5.41321 23.6229 6.01789L29.3824 21.8112C29.6057 22.4159 29.5884 23.0011 29.3303 23.5669C29.0725 24.1326 28.6412 24.5272 28.0366 24.7508L18.9288 28.0471Z" fill="white"/>
</g>
</svg>
